PathFileType	4	(X/Y/Z)	./motion_analysis/DM_ngait_tm_med1_new.trc
DataRate	CameraRate	NumFrames	NumMarkers	Units	OrigDataRate	OrigDataStartFrame	OrigNumFrames
120	120	8	68	mm	120	515	2061
Frame#	Time	Sternum			Neck			R_Shoulder			L_Shoulder			Xiphoid			Thoracic			R_Asis			L_Asis			R_Psis			L_Psis			Lumbar			R_Elbow			R_ElbowMedial			R_ShoulderAnterior			R_ShoulderPosterior			R_Wrist			R_Radius			R_Ulna			L_Elbow			L_ElbowMedial			L_ShoulderAnterior			L_ShoulderPosterior			L_Wrist			L_Ulna			L_Radius			L_Thigh_Superior			L_Thigh_Inferior			L_Thigh_Lateral			L_Knee_Lateral			L_Knee_Medial			L_Patella			L_Shank_Superior			L_Shank_Inferior			L_Shank_Lateral			L_Ankle_Lateral			L_Ankle_Medial			R_Thigh_Superior			R_Thigh_Inferior			R_Thigh_Lateral			R_Knee_Lateral			R_Knee_Medial			R_Patella			R_Shank_Superior			R_Shank_Inferior			R_Shank_Lateral			R_Ankle_Lateral			RankleMedial			R_Heel			R_Toe			R_Midfoot_Medial			R_Midfoot_Lateral			R_Hindfoot			R_Midfoot_Superior			R_ToeMedial			R_ToeLateral			L_Heel			L_Toe			L_Midfoot_Medial			L_Midfoot_Lateral			L_Hindfoot			L_Midfoot_Superior			L_ToeMedial			L_ToeLateral			Oglobal			Sacral			Xglobal			Yglobal			Zglobal			
		X1	Y1	Z1	X2	Y2	Z2	X3	Y3	Z3	X4	Y4	Z4	X5	Y5	Z5	X6	Y6	Z6	X7	Y7	Z7	X8	Y8	Z8	X9	Y9	Z9	X10	Y10	Z10	X11	Y11	Z11	X12	Y12	Z12	X13	Y13	Z13	X14	Y14	Z14	X15	Y15	Z15	X16	Y16	Z16	X17	Y17	Z17	X18	Y18	Z18	X19	Y19	Z19	X20	Y20	Z20	X21	Y21	Z21	X22	Y22	Z22	X23	Y23	Z23	X24	Y24	Z24	X25	Y25	Z25	X26	Y26	Z26	X27	Y27	Z27	X28	Y28	Z28	X29	Y29	Z29	X30	Y30	Z30	X31	Y31	Z31	X32	Y32	Z32	X33	Y33	Z33	X34	Y34	Z34	X35	Y35	Z35	X36	Y36	Z36	X37	Y37	Z37	X38	Y38	Z38	X39	Y39	Z39	X40	Y40	Z40	X41	Y41	Z41	X42	Y42	Z42	X43	Y43	Z43	X44	Y44	Z44	X45	Y45	Z45	X46	Y46	Z46	X47	Y47	Z47	X48	Y48	Z48	X49	Y49	Z49	X50	Y50	Z50	X51	Y51	Z51	X52	Y52	Z52	X53	Y53	Z53	X54	Y54	Z54	X55	Y55	Z55	X56	Y56	Z56	X57	Y57	Z57	X58	Y58	Z58	X59	Y59	Z59	X60	Y60	Z60	X61	Y61	Z61	X62	Y62	Z62	X63	Y63	Z63	X64	Y64	Z64	X65	Y65	Z65	X66	Y66	Z66	X67	Y67	Z67	X68	Y68	Z68	

516	4.3	-955.543	1402.38	424.043	-803.275	1487.94	391.597	-922.225	1425.49	244.652	-842.865	1451.2	582.027	-974.4059999999999	1237.57	435.388	-708.6079999999999	1296.04	401.879	-914.804	1010.35	301.635	-892.919	1014.35	578.813	-701.74	1044.64	392.642	-697.59	1046.05	470.943	-700.179	1094.99	428.827	-999.062	1108.19	191.909	-0	0	0	-0	0	0	-0	0	0	-1211.38	966.466	294.896	-1186.21	970.047	334.046	-1183.99	936.78	267.507	-786.131	1116.6	684.787	-0	0	0	-0	0	0	-0	0	0	-871.481	862.422	689.87	-823.876	865.934	697.306	-875.398	877.136	644.619	-862.563	843.427	617.864	-954.141	635.994	614.206	-977.404	733.9059999999999	582.461	-0	0	0	-0	0	0	-1010.38	532.183	577.121	-898.244	497.29	616.5599999999999	-724.859	292.849	587.479	-851.777	364.012	542.842	-0	0	0	-0	0	0	-831.405	823.638	273.398	-854.796	609.776	320.491	-931.111	676.949	370.44	-0	0	0	-0	0	0	-927.003	527.684	402.808	-0	0	0	-811.277	202.943	332.501	-871.856	329.35	404.169	-0	0	0	-0	0	0	-720.106	75.9149	386.786	-1019.38	70.4868	388.161	-942.0890000000001	46.3557	438.421	-931.796	46.8407	321.604	-821.198	43.6383	333.338	-881.1079999999999	134.197	385.698	-984.835	57.5775	432.557	-980.05	57.2927	339.05	-611.593	234.942	513.117	-841.256	56.0493	571.634	-779.563	83.5789	506.553	-743.474	92.4539	614.835	-656.9829999999999	150.574	584.027	-771.704	186.471	557.79	-810.6130000000001	61.5924	520.393	-789.769	63.1311	614.3680000000001	-0	0	0	-699.665	1045.35	431.792	-200	0	0	-0	0	200	-0	200	0	
517	4.308333	-954.4930000000001	1402.44	424.142	-802.341	1488.09	391.444	-921.648	1425.72	244.825	-841.367	1451.37	582.081	-973.237	1237.61	435.409	-707.527	1296.34	401.664	-913.289	1010.47	301.59	-891.356	1014.16	578.568	-700.279	1045.15	392.572	-696.087	1046.58	470.809	-698.862	1095.51	428.738	-998.564	1108.29	192.743	-0	0	0	-0	0	0	-0	0	0	-1211.5	966.74	295.038	-1186.53	970.474	334.272	-1183.91	937.082	267.81	-782.304	1116.91	684.064	-0	0	0	-0	0	0	-0	0	0	-867.099	862.6079999999999	689.968	-819.48	866.002	696.147	-871.976	877.4589999999999	644.833	-862.072	844.038	617.454	-955.521	637.404	613.2619999999999	-977.746	735.3339999999999	580.5890000000001	-0	0	0	-0	0	0	-1012.55	534.525	575.912	-901.859	497.03	615.999	-734.314	287.222	588.458	-858.237	362.577	542.629	-0	0	0	-0	0	0	-828.505	823.885	273.185	-850.308	609.8339999999999	320.041	-927.2329999999999	676.399	369.937	-0	0	0	-0	0	0	-922.069	527.236	402.328	-0	0	0	-804.861	203.02	332.381	-866.14	329.276	403.836	-0	0	0	-0	0	0	-713.352	75.9057	386.762	-1012.66	70.48220000000001	388.104	-935.304	46.1937	438.443	-925.046	46.7689	321.623	-814.453	43.6314	333.331	-874.37	134.1	385.766	-978.133	57.5877	432.521	-973.307	57.274	338.869	-621.813	225.014	515.346	-859.097	56.0268	571.329	-797.734	83.0065	508.057	-761.216	89.3597	616.372	-671.152	143.005	585.683	-785.535	184.758	560.151	-827.986	60.5091	520.356	-808.073	61.2119	614.747	-0	0	0	-698.183	1045.87	431.691	-200	0	0	-0	0	200	-0	200	0	
518	4.316667	-953.444	1402.43	424.359	-801.453	1488.2	391.394	-920.974	1425.83	245.04	-839.97	1451.47	582.174	-972.112	1237.53	435.505	-706.524	1296.58	401.574	-911.635	1010.23	301.429	-889.698	1013.84	578.138	-698.752	1045.64	392.435	-694.47	1047.02	470.533	-697.504	1095.96	428.462	-998.202	1108.35	193.571	-0	0	0	-0	0	0	-0	0	0	-1211.68	966.9160000000001	295.13	-1186.92	970.7569999999999	334.473	-1183.86	937.326	267.982	-778.647	1117.15	683.422	-0	0	0	-0	0	0	-0	0	0	-862.828	862.706	690.068	-815.096	865.996	695.101	-868.5549999999999	877.673	644.97	-861.38	844.447	617.634	-956.664	638.648	612.136	-977.927	736.524	578.5700000000001	-0	0	0	-0	0	0	-1014.46	536.8049999999999	574.585	-905.251	496.732	615.342	-744.169	281.869	589.552	-864.819	360.93	542.153	-0	0	0	-0	0	0	-825.724	824.068	273.017	-845.956	609.795	319.681	-923.5650000000001	675.884	369.369	-0	0	0	-0	0	0	-917.299	526.628	401.589	-0	0	0	-798.444	203.102	332.234	-860.3819999999999	329.125	403.458	-0	0	0	-0	0	0	-706.8869999999999	75.7885	386.626	-1005.98	70.4949	388.139	-928.875	46.4286	438.349	-918.6180000000001	46.8317	321.528	-807.737	43.605	333.35	-867.616	134.107	385.553	-971.401	57.6633	432.574	-966.554	57.2332	338.889	-632.615	214.933	517.3339999999999	-877.279	56.3668	571.51	-812.8200000000001	78.52419999999999	508.038	-778.296	84.9879	616.999	-686.0359999999999	135.288	587.635	-797.086	180.719	558.898	-845.1319999999999	59.0983	520.407	-826.567	59.5022	615.462	-0	0	0	-696.611	1046.33	431.484	-200	0	0	-0	0	200	-0	200	0	
519	4.325	-952.471	1402.35	424.599	-800.526	1488.26	391.454	-920.251	1425.84	245.303	-838.619	1451.46	582.362	-970.941	1237.39	435.595	-705.385	1296.79	401.593	-910.04	1010.06	301.45	-888.022	1013.48	577.842	-697.226	1046.04	392.389	-692.846	1047.38	470.369	-696.136	1096.33	428.314	-997.869	1108.44	194.397	-0	0	0	-0	0	0	-0	0	0	-1211.86	967.123	295.185	-1187.27	970.934	334.609	-1183.9	937.514	268.086	-775.225	1117.26	682.759	-0	0	0	-0	0	0	-0	0	0	-858.58	862.5549999999999	689.971	-810.846	865.886	694.075	-865.413	877.766	645.441	-860.48	844.713	617.545	-957.482	639.6420000000001	610.825	-977.886	737.497	576.427	-0	0	0	-0	0	0	-1016.1	539.001	573.101	-908.436	496.43	614.63	-753.828	276.052	590.498	-871.479	359.296	541.873	-0	0	0	-0	0	0	-822.952	824.224	272.966	-841.692	609.7619999999999	319.437	-920.0940000000001	675.413	368.823	-0	0	0	-0	0	0	-912.525	526.086	401.133	-0	0	0	-792.098	203.183	332.153	-854.437	328.915	402.461	-0	0	0	-0	0	0	-700.188	75.7992	386.604	-999.292	70.5607	388.115	-922.149	46.2612	438.342	-911.921	46.8261	321.519	-801.013	43.5822	333.273	-860.982	134.054	385.648	-964.747	57.6625	432.55	-959.895	57.2911	338.847	-643.601	204.751	519.662	-895.496	56.7851	572.133	-828.434	74.8145	508.663	-795.367	80.97539999999999	618.093	-701.376	127.761	589.74	-810.052	176.773	558.9930000000001	-862.606	57.9237	521.2910000000001	-845.0940000000001	58.0078	616.576	-0	0	0	-695.0359999999999	1046.71	431.379	-200	0	0	-0	0	200	-0	200	0	
520	4.333333	-951.498	1402.19	424.769	-799.6559999999999	1488.24	391.599	-919.46	1425.78	245.533	-837.39	1451.39	582.6319999999999	-969.828	1237.21	435.767	-704.2569999999999	1296.96	401.729	-908.389	1010.08	301.309	-886.4880000000001	1013.01	577.751	-695.7140000000001	1046.37	392.447	-691.374	1047.67	470.411	-694.7569999999999	1096.65	428.449	-997.572	1108.47	195.107	-0	0	0	-0	0	0	-0	0	0	-1212.06	967.279	295.19	-1187.6	971.097	334.688	-1183.97	937.691	268.136	-772.0890000000001	1117.28	682.288	-0	0	0	-0	0	0	-0	0	0	-854.546	862.355	689.894	-806.78	865.711	693.114	-861.84	877.673	645.47	-859.261	845.609	615.66	-958.088	640.479	609.3099999999999	-977.673	738.283	574.324	-0	0	0	-0	0	0	-1017.43	541.059	571.365	-911.395	496.051	613.809	-763.923	270.379	591.667	-878.23	357.516	541.725	-0	0	0	-0	0	0	-820.2670000000001	824.402	272.97	-837.47	609.689	319.264	-916.682	674.92	368.235	-0	0	0	-0	0	0	-907.83	525.455	400.673	-0	0	0	-785.731	203.286	332.085	-848.742	328.672	402.096	-0	0	0	-0	0	0	-693.229	75.9243	386.267	-992.499	70.4764	388.017	-914.854	45.5578	438.957	-905.177	46.4997	322.09	-794.264	43.5077	333.259	-854.548	133.816	386.239	-958.021	57.6089	432.449	-953.176	57.2227	338.821	-655.432	194.492	522.0700000000001	-913.59	57.2049	573.148	-845.41	72.3292	509.727	-812.9299999999999	77.1739	619.398	-717.159	120.105	591.686	-823.269	173.455	560.1849999999999	-880.355	56.7577	522.264	-863.6180000000001	56.7931	618.297	-0	0	0	-693.544	1047.02	431.429	-200	0	0	-0	0	200	-0	200	0	
521	4.341667	-950.511	1402.02	425.084	-798.789	1488.2	391.856	-918.6	1425.7	245.78	-836.332	1451.16	582.854	-968.797	1236.93	436.003	-703.205	1297.08	401.915	-906.688	1009.77	301.265	-884.951	1012.66	577.739	-694.179	1046.63	392.563	-689.885	1047.92	470.506	-693.372	1096.9	428.568	-997.3049999999999	1108.51	195.758	-0	0	0	-0	0	0	-0	0	0	-1212.26	967.4059999999999	295.159	-1187.86	971.247	334.671	-1184.06	937.841	268.195	-769.1180000000001	1117.24	681.8680000000001	-0	0	0	-0	0	0	-0	0	0	-850.624	862.0170000000001	689.702	-802.797	865.456	692.265	-858.378	877.443	645.385	-857.3920000000001	845.487	615.0119999999999	-958.432	641.1609999999999	607.741	-977.191	738.921	572.2089999999999	-0	0	0	-0	0	0	-1018.42	542.9450000000001	569.266	-914.229	495.54	612.86	-774.3099999999999	264.67	593.078	-884.952	355.617	541.703	-0	0	0	-0	0	0	-817.679	824.434	272.937	-833.299	609.5890000000001	319.021	-912.234	673.992	369.112	-0	0	0	-0	0	0	-903.177	524.821	400.205	-0	0	0	-779.422	203.351	332.013	-843.097	328.471	401.944	-0	0	0	-0	0	0	-686.6319999999999	75.8909	386.268	-985.798	70.47490000000001	387.965	-908.393	46.1013	438.715	-898.527	46.5863	321.861	-787.569	43.499	333.278	-847.545	133.947	385.763	-951.26	57.4853	432.09	-946.506	57.0992	338.95	-667.8150000000001	184.297	524.6	-931.5119999999999	57.3301	574.42	-862.553	70.02800000000001	510.904	-830.639	73.4948	620.793	-732.552	112.273	593.851	-836.673	170.138	561.587	-897.758	55.504	523.852	-882.009	55.4221	620.021	-0	0	0	-692.032	1047.27	431.534	-200	0	0	-0	0	200	-0	200	0	
522	4.35	-949.598	1401.75	425.448	-797.989	1488.1	392.166	-917.726	1425.54	246	-835.359	1450.86	583.177	-967.6900000000001	1236.55	436.257	-702.146	1297.15	402.156	-905.064	1009.55	301.355	-883.403	1012.16	577.802	-692.671	1046.81	392.755	-688.425	1048.11	470.641	-692.0119999999999	1097.09	428.796	-997.049	1108.52	196.376	-0	0	0	-0	0	0	-0	0	0	-1212.38	967.49	295.03	-1188.08	971.335	334.659	-1184.14	937.9450000000001	268.136	-766.343	1117.08	681.499	-0	0	0	-0	0	0	-0	0	0	-846.841	861.547	689.5069999999999	-799.004	865.083	691.467	-855.0549999999999	877.079	645.297	-854.848	845.343	613.8440000000001	-958.495	641.662	605.976	-976.53	739.3200000000001	570.123	-0	0	0	-0	0	0	-1019.07	544.748	567.1420000000001	-916.867	494.966	611.905	-784.914	258.924	594.583	-891.475	353.359	540.97	-0	0	0	-0	0	0	-815.081	824.47	273.094	-829.299	609.4450000000001	318.944	-908.5839999999999	673.2329999999999	369.289	-0	0	0	-0	0	0	-898.818	524.0309999999999	400.314	-0	0	0	-773.139	203.418	331.96	-837.522	328.207	401.828	-0	0	0	-0	0	0	-679.958	75.8738	386.261	-979.171	70.52970000000001	387.975	-901.49	46.8115	440.068	-892.129	45.7002	323.177	-781.128	42.9393	334.283	-840.84	133.911	385.658	-944.601	57.6372	432.288	-939.849	57.0906	338.954	-680.794	174.237	527.163	-949.774	57.6714	575.795	-879.741	67.65219999999999	512.086	-848.5119999999999	69.9301	622.203	-747.9450000000001	104.579	596.022	-850.588	166.692	562.982	-915.833	54.3162	525.65	-900.379	54.2564	621.948	-0	0	0	-690.548	1047.46	431.698	-200	0	0	-0	0	200	-0	200	0	
523	4.358333	-948.688	1401.43	425.901	-797.183	1487.92	392.532	-916.886	1425.36	246.369	-834.343	1450.48	583.59	-966.59	1236.17	436.545	-701.018	1297.18	402.539	-903.404	1009.32	301.377	-881.927	1011.64	577.951	-691.168	1046.94	392.989	-686.999	1048.21	470.916	-690.644	1097.21	429.126	-996.703	1108.46	196.947	-0	0	0	-0	0	0	-0	0	0	-1212.44	967.54	294.952	-1188.23	971.375	334.67	-1184.11	938.016	268.158	-763.8390000000001	1116.9	681.3150000000001	-0	0	0	-0	0	0	-0	0	0	-843.122	860.909	689.149	-795.312	864.615	690.7809999999999	-851.797	876.549	645.046	-849.917	843.254	608.163	-958.192	641.976	604.061	-975.577	739.577	568.02	-0	0	0	-0	0	0	-1019.38	546.3819999999999	564.885	-919.258	494.251	610.96	-795.654	253.205	596.1420000000001	-897.974	351.415	541.146	-0	0	0	-0	0	0	-812.52	824.451	273.156	-825.341	609.283	318.937	-905.063	672.6319999999999	369.243	-0	0	0	-0	0	0	-894.373	523.3150000000001	399.985	-0	0	0	-766.949	203.439	331.996	-832.0359999999999	327.902	401.734	-0	0	0	-0	0	0	-673.301	75.8892	386.211	-972.425	70.4144	387.891	-895.054	46.0674	438.677	-885.191	46.5104	321.822	-774.135	43.4185	333.237	-834.17	133.886	385.689	-938.0069999999999	57.5009	432.257	-933.1799999999999	57.0873	338.967	-693.8819999999999	164.528	529.71	-967.787	58.4013	577.718	-896.293	64.4969	515.883	-865.534	68.1575	626.095	-765.008	98.92910000000001	599.83	-864.202	163.59	564.7809999999999	-934.083	53.6879	527.475	-918.739	53.43	624.159	-0	0	0	-689.083	1047.58	431.952	-200	0	0	-0	0	200	-0	200	0	
